<svg width="213" height="287" viewBox="0 0 213 287" fill="none" xmlns="http://www.w3.org/2000/svg">
<path d="M142.476 99.7996C151.383 98.5263 141.801 105.559 142.476 124.5C143.15 143.441 156.238 152.076 153.534 153.432L114.321 147.339L111.617 104.046L142.476 99.7996Z" fill="#341309"/>
<path d="M92.969 43.2381C91.1112 44.0976 106.757 6.94807 114.741 12.7417C122.256 18.2107 102.405 38.8833 92.969 43.2381Z" fill="#30242A"/>
<path d="M92.1037 45.511C90.3986 47.5483 50.4803 33.5735 56.0029 25.5133C61.2838 17.7587 93.8089 43.4673 92.1037 45.511Z" fill="#30242A"/>
<path d="M39.1105 147.683C39.1105 147.683 53.1525 147.314 70.4076 122.414C81.3893 106.542 70.4076 90.8862 70.4076 90.8862C69.6823 82.1703 67.3154 57.0602 86.1866 43.2636C105.058 29.467 129 36.7314 137.723 47.6184C146.446 58.5054 144.251 78.8469 147.152 93.3692C150.053 107.892 148.119 117.766 139.173 122.414C131.036 126.641 121.46 124.088 121.46 124.088L122.478 139.413C122.478 139.413 140.93 140.107 152.236 144.201C152.236 176.52 157.023 179.655 153.966 222.383L145.059 247.92L160.373 290.698H27.0154L49.3477 251.11C45.4857 216.004 39.1105 147.683 39.1105 147.683Z" fill="#EAA58B"/>
<path d="M81.9619 137.821L116.956 201.316L131.271 140.049C137.564 140.686 145.95 141.921 152.172 144.175C188.807 152.785 200.447 247.92 200.447 247.92C208.057 270.565 212.534 286.687 212.534 286.687L188.807 290.698C188.807 290.698 176.411 280.637 167.319 262.952C153.966 236.978 153.966 222.383 153.966 222.383L145.059 247.92L160.373 290.698H27.0154L49.3477 251.116C45.5302 215.997 39.1677 147.677 39.1677 147.677C45.0756 144.078 51.5448 141.495 58.3061 140.037C65.922 138.318 74.2951 139.343 81.9619 137.821Z" fill="#4756DF"/>
<path d="M58.2807 116C69.2624 100.128 70.3758 90.8862 70.3758 90.8862C69.6505 82.1703 67.2837 57.0602 86.1548 43.2636C105.026 29.467 128.968 36.7314 137.691 47.6184C141.241 52.0751 142.978 58.0725 143.99 64.6174C138.2 65.5915 129.706 63.5987 129.706 63.5987C118.095 76.6695 107.692 78.745 107.692 78.745C99.567 70.6148 85.315 70.8822 82.999 83.2017C80.594 95.9923 101.011 101.741 101.011 101.741C101.011 101.741 102.92 124.725 92.74 133.027C89.6156 135.505 85.9214 137.162 81.9937 137.847C74.3587 139.368 65.9539 138.343 58.2807 140.05C51.5194 141.508 28.9079 159.401 23 163C8.05432 149.823 54.0045 122.181 58.2807 116Z" fill="#341309"/>
<path d="M117.592 58.938C121.409 62.1213 125.863 64.0313 130.991 65.3047" stroke="#EAA58B" stroke-width="4" stroke-miterlimit="10" stroke-linecap="round"/>
<path d="M121.67 125.521C118.707 124.532 115.85 123.252 113.138 121.701" stroke="#A15842" stroke-width="4" stroke-miterlimit="10" stroke-linecap="round"/>
<path d="M100.229 88.8998L94.4261 85.2708" stroke="#A15842" stroke-width="4" stroke-miterlimit="10" stroke-linecap="round"/>
<path d="M133.524 105.943C132.321 106.688 127.797 107.268 126.003 103.811" stroke="#A15842" stroke-width="4" stroke-miterlimit="10" stroke-linecap="round"/>
<path d="M121.702 89.6065C120.5 89.6065 119.526 88.6317 119.526 87.4291C119.526 86.2266 120.5 85.2517 121.702 85.2517C122.904 85.2517 123.878 86.2266 123.878 87.4291C123.878 88.6317 122.904 89.6065 121.702 89.6065Z" fill="#30242A"/>
<path d="M139.74 86.7223C138.538 86.7223 137.564 85.7474 137.564 84.5448C137.564 83.3423 138.538 82.3674 139.74 82.3674C140.942 82.3674 141.916 83.3423 141.916 84.5448C141.916 85.7474 140.942 86.7223 139.74 86.7223Z" fill="#30242A"/>
<path d="M133.613 92.9553C134.045 94.3242 134.421 95.814 134.173 96.3106C133.832 96.9399 133.314 97.4555 132.684 97.794" stroke="#A15842" stroke-width="4" stroke-miterlimit="10" stroke-linecap="round"/>
<path d="M134.167 85.7692C132.849 78.987 136.726 72.526 142.828 71.338C148.929 70.1501 154.945 74.6851 156.264 81.4673C157.582 88.2495 153.705 94.7106 147.603 95.8985C141.501 97.0864 135.486 92.5514 134.167 85.7692Z" stroke="#30242A" stroke-width="4" stroke-miterlimit="10" stroke-linecap="round"/>
<path d="M106.522 89.1611C105.204 82.3789 109.081 75.9178 115.183 74.7299C121.284 73.542 127.3 78.077 128.619 84.8592C129.937 91.6414 126.06 98.1024 119.958 99.2903C113.856 100.478 107.841 95.9433 106.522 89.1611Z" stroke="#30242A" stroke-width="4" stroke-miterlimit="10" stroke-linecap="round"/>
<path d="M133.644 84.7424L129.248 85.2135" stroke="#30242A" stroke-width="4" stroke-miterlimit="10" stroke-linecap="round"/>
<path d="M160.978 205.785L154.819 223.72" stroke="#30242A" stroke-width="4" stroke-linecap="round" stroke-linejoin="round"/>
<path d="M49.5823 243.247C49.5823 243.247 80.0238 254.443 106.884 252.204C133.744 249.965 144.632 246.646 144.632 246.646" stroke="#30242A" stroke-width="4" stroke-linecap="round" stroke-linejoin="round"/>
<path d="M115.677 200.679L110.574 225.579V248.563" stroke="#30242A" stroke-width="4" stroke-linecap="round" stroke-linejoin="round"/>
<path d="M149.614 143.621L139.924 165.561L151.409 164.288L110.574 225.579" stroke="#30242A" stroke-width="4" stroke-linecap="round" stroke-linejoin="round"/>
<path d="M55.2012 141.011L71.6483 164.287L56.3337 163.008L112.489 212.808" stroke="#30242A" stroke-width="4" stroke-linecap="round" stroke-linejoin="round"/>
<path d="M47.7916 226.23L58.8851 201.959" stroke="#30242A" stroke-width="4" stroke-linecap="round" stroke-linejoin="round"/>
<path d="M32.4934 282.09C39.155 279.868 51.1101 275.577 58.3188 271.267" stroke="#30242A" stroke-width="4" stroke-linecap="round" stroke-linejoin="round"/>
<path d="M24.5128 280.865C-26.5336 256.602 12.9287 168.763 39.1105 147.683L53.7824 207.065L42.4196 238.321C50.5254 236.921 67.5385 259.04 74.6518 258.474V280.865C58.4528 288.747 42.5441 289.46 24.5128 280.865Z" fill="#4756DF"/>
</svg>
