<svg width="375" height="280" viewBox="0 0 375 280" fill="none" xmlns="http://www.w3.org/2000/svg">
<path d="M23.0838 196.472C23.5337 197.521 24.0098 198.582 24.4985 199.624L23.4511 200.116C22.9569 199.062 22.4758 197.99 22.0206 196.929L23.0838 196.472Z" fill="#E6E6E6"/>
<path d="M209.888 112.523C210.549 113.932 211.184 115.368 211.775 116.792L210.707 117.236C209.822 115.105 208.843 112.957 207.81 110.88L208.846 110.364C209.201 111.077 209.548 111.797 209.888 112.523ZM205.491 104.149L204.493 104.734C203.32 102.728 202.066 100.743 200.765 98.83L201.721 98.1783C203.036 100.112 204.305 102.121 205.491 104.149ZM214.263 123.401C215.016 125.627 215.699 127.903 216.294 130.166L215.176 130.461C214.587 128.223 213.911 125.973 213.167 123.772L214.263 123.401ZM197.55 92.4803L196.64 93.1964C195.208 91.3741 193.694 89.5787 192.139 87.8601L192.996 87.0825C194.569 88.8212 196.101 90.6371 197.55 92.4803ZM217.856 137.055C218.295 139.358 218.659 141.707 218.939 144.037L217.791 144.175C217.514 141.871 217.153 139.549 216.719 137.272L217.856 137.055ZM188.081 82.0129L187.28 82.8481C185.61 81.2416 183.865 79.6733 182.092 78.1877L182.836 77.2999C184.628 78.8025 186.393 80.3879 188.081 82.0129ZM219.539 151.086C219.657 153.435 219.695 155.814 219.651 158.159L218.494 158.137C218.537 155.819 218.5 153.466 218.383 151.145L219.539 151.086ZM177.277 72.9577L176.597 73.8945C174.722 72.5324 172.778 71.2175 170.817 69.9883L171.431 69.0062C173.414 70.2499 175.381 71.5795 177.277 72.9577ZM219.277 165.22C219.072 167.561 218.784 169.921 218.42 172.237L217.277 172.057C217.637 169.767 217.922 167.433 218.125 165.118L219.277 165.22ZM165.329 65.4641L164.783 66.4853C162.74 65.3909 160.635 64.3536 158.523 63.402L158.998 62.3457C161.134 63.3083 163.264 64.3573 165.329 65.4641ZM217.086 179.178C216.565 181.464 215.958 183.762 215.282 186.01L214.174 185.676C214.842 183.454 215.442 181.181 215.957 178.92L217.086 179.178ZM152.468 59.666L152.066 60.752C149.893 59.946 147.665 59.2043 145.443 58.5479L145.771 57.4368C148.018 58.1008 150.271 58.8508 152.468 59.666ZM213.017 192.703C212.19 194.898 211.277 197.093 210.303 199.224L209.251 198.743C210.214 196.635 211.117 194.465 211.935 192.294L213.017 192.703ZM138.934 55.6701L138.683 56.8003C136.423 56.2976 134.114 55.8663 131.82 55.5183L131.994 54.3735C134.314 54.7249 136.649 55.1615 138.934 55.6701ZM207.153 205.544C206.036 207.606 204.833 209.655 203.58 211.633L202.602 211.012C203.842 209.056 205.031 207.031 206.136 204.992L207.153 205.544ZM124.978 53.5557L124.884 54.7096C122.572 54.52 120.225 54.4088 117.907 54.379L117.922 53.2211C120.267 53.2511 122.64 53.3635 124.978 53.5557V53.5557ZM199.6 217.461C198.213 219.35 196.743 221.214 195.231 223.001L194.348 222.253C195.843 220.485 197.296 218.642 198.668 216.775L199.6 217.461ZM110.858 53.3732L110.924 54.5295C108.607 54.6601 106.266 54.8731 103.964 55.163L103.82 54.0138C106.148 53.7203 108.516 53.5047 110.858 53.3732ZM190.493 228.225C188.859 229.907 187.146 231.553 185.401 233.117L184.629 232.254C186.355 230.708 188.048 229.081 189.664 227.418L190.493 228.225ZM96.8512 55.1387L97.0747 56.2757C94.8008 56.7236 92.5145 57.2568 90.2791 57.8597L89.9783 56.7416C92.2392 56.1317 94.5514 55.5926 96.8512 55.1387ZM179.983 237.644C178.134 239.084 176.211 240.478 174.267 241.787L173.621 240.826C175.543 239.532 177.445 238.153 179.273 236.73L179.983 237.644ZM83.2323 58.8128L83.6089 59.9078C81.422 60.6622 79.2302 61.5033 77.0937 62.4072L76.6435 61.3405C78.8035 60.4262 81.0204 59.5759 83.2323 58.8128ZM168.281 245.527C166.255 246.698 164.16 247.817 162.054 248.851L161.545 247.811C163.628 246.788 165.699 245.682 167.702 244.524L168.281 245.527ZM70.7609 65.3438C68.6898 66.3893 66.6306 67.5179 64.6406 68.6984L64.0507 67.7024C66.0633 66.5082 68.1456 65.3668 70.2396 64.3092L70.7609 65.3438ZM58.7632 72.4631C56.8534 73.7821 54.9677 75.1816 53.1585 76.6238L52.438 75.7179C54.2675 74.2592 56.1746 72.8434 58.1065 71.5097L58.7632 72.4631ZM47.854 81.1614C46.1477 82.7265 44.474 84.3706 42.8801 86.0485L42.0416 85.2504C43.654 83.5533 45.3466 81.8903 47.0726 80.3078L47.854 81.1614ZM38.2535 91.2691C36.7761 93.0564 35.3435 94.9165 33.995 96.7971L33.0549 96.1217C34.4189 94.2196 35.8679 92.3386 37.3619 90.5309L38.2535 91.2691ZM30.1241 102.606C28.904 104.58 27.7381 106.62 26.6584 108.667L25.6356 108.126C26.727 106.056 27.9061 103.993 29.14 101.996L30.1241 102.606ZM23.6138 114.952C22.6743 117.071 21.7958 119.251 21.0025 121.43L19.9155 121.034C20.7178 118.83 21.6062 116.626 22.5559 114.482L23.6138 114.952ZM18.8386 128.073C18.1952 130.304 17.6205 132.584 17.1311 134.849L16.0004 134.604C16.4952 132.314 17.0761 130.008 17.727 127.752L18.8386 128.073ZM15.8886 141.725C15.5548 144.025 15.2962 146.363 15.1203 148.673L13.9665 148.585C14.1445 146.248 14.4059 143.884 14.7438 141.558L15.8886 141.725ZM14.8303 155.658C14.8133 157.981 14.8776 160.332 15.0208 162.648L13.866 162.719C13.7212 160.377 13.6564 157.999 13.6729 155.65L14.8303 155.658ZM15.693 169.608C15.9956 171.907 16.3824 174.225 16.8426 176.498L15.7086 176.728C15.243 174.429 14.8518 172.085 14.5459 169.76L15.693 169.608ZM18.4644 183.292C19.0797 185.526 19.7807 187.768 20.5485 189.958L19.4563 190.342C18.68 188.127 17.971 185.858 17.3487 183.6L18.4644 183.292Z" fill="#E6E6E6"/>
<path d="M155.022 250.74L155.458 251.812C154.377 252.254 153.282 252.679 152.204 253.076L151.804 251.99C152.869 251.597 153.952 251.176 155.022 250.74Z" fill="#E6E6E6"/>
<path d="M209.409 202.261C209.293 202.072 206.57 197.521 205.626 188.07C204.76 179.399 205.317 164.784 212.889 144.397C227.233 105.775 209.583 74.6126 209.403 74.3022L210.274 73.7965C210.319 73.8752 214.874 81.8204 217.564 94.4719C221.119 111.245 219.825 128.685 213.832 144.748C199.513 183.304 210.159 201.556 210.268 201.736L209.409 202.261Z" fill="#3F3D56"/>
<path d="M203.8 72.0344C207.413 72.0344 210.341 69.1025 210.341 65.4858C210.341 61.8691 207.413 58.9372 203.8 58.9372C200.187 58.9372 197.258 61.8691 197.258 65.4858C197.258 69.1025 200.187 72.0344 203.8 72.0344Z" fill="#6C63FF"/>
<path d="M224.431 96.2137C228.044 96.2137 230.973 93.2818 230.973 89.6652C230.973 86.0485 228.044 83.1166 224.431 83.1166C220.818 83.1166 217.89 86.0485 217.89 89.6652C217.89 93.2818 220.818 96.2137 224.431 96.2137Z" fill="#3F3D56"/>
<path d="M210.341 112.333C213.954 112.333 216.883 109.401 216.883 105.785C216.883 102.168 213.954 99.2362 210.341 99.2362C206.729 99.2362 203.8 102.168 203.8 105.785C203.8 109.401 206.729 112.333 210.341 112.333Z" fill="#6C63FF"/>
<path d="M227.451 125.934C231.063 125.934 233.992 123.002 233.992 119.386C233.992 115.769 231.063 112.837 227.451 112.837C223.838 112.837 220.909 115.769 220.909 119.386C220.909 123.002 223.838 125.934 227.451 125.934Z" fill="#6C63FF"/>
<path d="M205.309 147.091C208.922 147.091 211.851 144.159 211.851 140.543C211.851 136.926 208.922 133.994 205.309 133.994C201.696 133.994 198.768 136.926 198.768 140.543C198.768 144.159 201.696 147.091 205.309 147.091Z" fill="#3F3D56"/>
<path d="M213.361 202.502C213.361 202.502 206.819 186.383 226.444 174.293L213.361 202.502Z" fill="#3F3D56"/>
<path d="M205.315 202.21C205.315 202.21 202.338 185.068 179.295 185.215L205.315 202.21Z" fill="#3F3D56"/>
<path d="M162.129 82.0349C161.894 81.9785 161.646 82.0096 161.432 82.1223C161.218 82.2351 161.052 82.4218 160.965 82.6479C160.878 82.8739 160.876 83.1239 160.959 83.3513C161.043 83.5788 161.206 83.7682 161.418 83.8844C164.832 85.7922 167.836 88.3575 170.256 91.4325C181.538 105.768 177.598 127.709 161.457 140.438C154.289 146.191 145.353 149.282 136.166 149.185C147.005 152.243 159.798 149.837 170.107 141.707C186.248 128.977 190.187 107.036 178.905 92.7008C174.667 87.3616 168.759 83.6048 162.129 82.0349V82.0349Z" fill="#3F3D56"/>
<path d="M170.256 91.6496C181.538 105.985 177.598 127.926 161.457 140.656C155.543 145.373 148.423 148.33 140.91 149.191C149.882 149.138 158.574 146.054 165.578 140.438C181.719 127.709 185.658 105.768 174.376 91.4325C171.176 87.3767 166.98 84.2203 162.199 82.2711L162.124 82.2527C161.889 82.1977 161.642 82.2298 161.429 82.3432C161.216 82.4566 161.051 82.6435 160.965 82.8693C160.879 83.0951 160.877 83.3445 160.961 83.5712C161.045 83.7979 161.207 83.9866 161.419 84.1023C164.833 86.0101 167.836 88.5751 170.256 91.6496V91.6496Z" fill="#6C63FF"/>
<path d="M120.22 69.5157L126.879 81.0623L133.539 92.609H120.22H106.901L113.56 81.0623L120.22 69.5157Z" fill="#6C63FF"/>
<path d="M144.51 69.5157L151.17 81.0623L157.829 92.609H144.51H131.191L137.85 81.0623L144.51 69.5157Z" fill="#6C63FF"/>
<path d="M119.45 75.5384L123.558 82.6627L127.667 89.7866H119.45H111.232L115.341 82.6627L119.45 75.5384Z" fill="#3F3D56"/>
<path d="M144.412 75.5384L148.521 82.6627L152.63 89.7866H144.412H136.195L140.304 82.6627L144.412 75.5384Z" fill="#3F3D56"/>
<path d="M179.21 151.661C179.21 162.334 175.574 172.688 168.901 181.013C162.228 189.337 152.918 195.134 142.509 197.446C132.1 199.757 121.215 198.445 111.652 193.727C102.088 189.008 94.4189 181.165 89.9105 171.493C85.402 161.821 84.3243 150.899 86.8552 140.531C89.3862 130.163 95.3744 120.969 103.831 114.468C112.287 107.968 122.706 104.549 133.365 104.778C144.025 105.006 154.288 108.867 162.458 115.724C167.704 120.125 171.922 125.624 174.816 131.833C177.71 138.041 179.21 144.81 179.21 151.661V151.661Z" fill="#3F3D56"/>
<path opacity="0.1" d="M162.458 115.724C158.54 125.969 146.549 133.424 132.365 133.424C118.181 133.424 106.19 125.969 102.271 115.724C110.705 108.646 121.359 104.767 132.365 104.767C143.37 104.767 154.025 108.646 162.458 115.724V115.724Z" fill="black"/>
<path d="M132.365 129.734C149.732 129.734 163.812 118.556 163.812 104.767C163.812 90.978 149.732 79.8 132.365 79.8C114.997 79.8 100.918 90.978 100.918 104.767C100.918 118.556 114.997 129.734 132.365 129.734Z" fill="#3F3D56"/>
<path d="M117.617 107.155C120.851 107.155 123.473 104.531 123.473 101.293C123.473 98.0558 120.851 95.4314 117.617 95.4314C114.383 95.4314 111.762 98.0558 111.762 101.293C111.762 104.531 114.383 107.155 117.617 107.155Z" fill="white"/>
<path d="M147.112 107.155C150.346 107.155 152.968 104.531 152.968 101.293C152.968 98.0558 150.346 95.4314 147.112 95.4314C143.878 95.4314 141.257 98.0558 141.257 101.293C141.257 104.531 143.878 107.155 147.112 107.155Z" fill="white"/>
<path d="M117.617 104.984C119.654 104.984 121.304 103.332 121.304 101.293C121.304 99.2549 119.654 97.6025 117.617 97.6025C115.581 97.6025 113.93 99.2549 113.93 101.293C113.93 103.332 115.581 104.984 117.617 104.984Z" fill="#3F3D56"/>
<path d="M147.112 104.984C149.149 104.984 150.799 103.332 150.799 101.293C150.799 99.2549 149.149 97.6025 147.112 97.6025C145.076 97.6025 143.425 99.2549 143.425 101.293C143.425 103.332 145.076 104.984 147.112 104.984Z" fill="#3F3D56"/>
<path d="M125.788 110.627C126.387 110.627 126.873 110.141 126.873 109.541C126.873 108.942 126.387 108.456 125.788 108.456C125.189 108.456 124.704 108.942 124.704 109.541C124.704 110.141 125.189 110.627 125.788 110.627Z" fill="#6C63FF"/>
<path d="M125.372 109.266C123.244 110.232 121.836 112.201 119.601 113.047C117.324 113.905 114.821 113.952 112.513 113.178C112.115 113.046 111.944 113.675 112.34 113.806C114.651 114.577 117.15 114.571 119.457 113.789C120.548 113.417 121.573 112.872 122.491 112.175C123.556 111.366 124.464 110.39 125.7 109.828C126.081 109.655 125.75 109.094 125.372 109.266Z" fill="#6C63FF"/>
<path d="M126.219 108.989C125.132 109.24 124.084 109.636 123.103 110.168C121.973 110.714 120.757 111.057 119.509 111.18C117.141 111.386 114.774 110.786 112.789 109.478C112.437 109.248 112.111 109.811 112.46 110.04C114.448 111.346 116.8 111.982 119.173 111.856C120.325 111.796 121.46 111.55 122.533 111.127C123.827 110.61 125.001 109.857 126.392 109.617C126.804 109.546 126.629 108.918 126.219 108.989V108.989Z" fill="#6C63FF"/>
<path d="M125.638 108.567C123.982 110.131 123.294 112.391 121.537 113.905C119.646 115.534 117.24 116.439 114.746 116.46C114.662 116.463 114.582 116.498 114.523 116.559C114.464 116.62 114.432 116.701 114.432 116.786C114.432 116.87 114.464 116.951 114.523 117.012C114.582 117.073 114.662 117.108 114.746 117.111C117.161 117.094 119.504 116.293 121.426 114.83C122.295 114.171 123.058 113.383 123.689 112.493C124.508 111.333 125.05 110.017 126.098 109.027C126.403 108.739 125.942 108.279 125.638 108.567H125.638Z" fill="#6C63FF"/>
<path d="M137.206 110.627C137.805 110.627 138.291 110.141 138.291 109.541C138.291 108.942 137.805 108.456 137.206 108.456C136.608 108.456 136.122 108.942 136.122 109.541C136.122 110.141 136.608 110.627 137.206 110.627Z" fill="#6C63FF"/>
<path d="M137.295 109.828C138.517 110.384 139.42 111.344 140.471 112.15C141.398 112.858 142.434 113.412 143.537 113.789C145.844 114.573 148.344 114.579 150.654 113.806C151.05 113.675 150.88 113.046 150.481 113.178C148.174 113.952 145.671 113.906 143.394 113.047C141.159 112.199 139.751 110.233 137.623 109.266C137.245 109.094 136.913 109.655 137.295 109.828V109.828Z" fill="#6C63FF"/>
<path d="M136.603 109.617C137.939 109.847 139.069 110.553 140.305 111.064C141.424 111.524 142.613 111.791 143.821 111.856C146.195 111.982 148.547 111.346 150.534 110.04C150.884 109.812 150.558 109.248 150.206 109.478C148.222 110.789 145.853 111.389 143.485 111.18C142.238 111.054 141.022 110.711 139.892 110.168C138.911 109.637 137.863 109.24 136.776 108.989C136.366 108.918 136.19 109.546 136.603 109.617V109.617Z" fill="#6C63FF"/>
<path d="M136.897 109.027C137.943 110.016 138.486 111.335 139.305 112.493C139.937 113.382 140.7 114.17 141.568 114.83C143.49 116.293 145.834 117.093 148.249 117.111C148.333 117.108 148.413 117.073 148.472 117.012C148.53 116.951 148.563 116.87 148.563 116.786C148.563 116.701 148.53 116.62 148.472 116.559C148.413 116.498 148.333 116.463 148.249 116.46C145.754 116.442 143.347 115.536 141.458 113.905C139.708 112.385 139.012 110.131 137.357 108.567C137.052 108.279 136.591 108.739 136.897 109.027V109.027Z" fill="#6C63FF"/>
<path d="M117.617 201.812C122.408 201.812 126.292 199.576 126.292 196.818C126.292 194.061 122.408 191.825 117.617 191.825C112.826 191.825 108.942 194.061 108.942 196.818C108.942 199.576 112.826 201.812 117.617 201.812Z" fill="#3F3D56"/>
<path d="M147.112 201.812C151.903 201.812 155.787 199.576 155.787 196.818C155.787 194.061 151.903 191.825 147.112 191.825C142.321 191.825 138.437 194.061 138.437 196.818C138.437 199.576 142.321 201.812 147.112 201.812Z" fill="#3F3D56"/>
<path d="M131.497 113.451C135.45 113.451 138.654 111.604 138.654 109.326C138.654 107.048 135.45 105.201 131.497 105.201C127.545 105.201 124.34 107.048 124.34 109.326C124.34 111.604 127.545 113.451 131.497 113.451Z" fill="#6C63FF"/>
<path d="M14 0C6.26802 0 0 6.26801 0 14V266.078C0 273.81 6.26801 280.078 14 280.078H360.891C368.623 280.078 374.891 273.81 374.891 266.078V14C374.891 6.268 368.623 0 360.891 0H14ZM48.3081 3.52616C49.5024 3.52616 50.6699 3.88068 51.6629 4.5449C52.6559 5.20911 53.4299 6.15319 53.8869 7.25774C54.344 8.36229 54.4636 9.57771 54.2306 10.7503C53.9976 11.9229 53.4225 13 52.578 13.8453C51.7335 14.6907 50.6575 15.2665 49.4861 15.4997C48.3148 15.7329 47.1006 15.6132 45.9973 15.1557C44.8939 14.6982 43.9508 13.9234 43.2873 12.9293C42.6237 11.9353 42.2696 10.7666 42.2696 9.571C42.2696 7.96781 42.9058 6.43028 44.0382 5.29665C45.1706 4.16302 46.7066 3.52616 48.3081 3.52616ZM12.077 15.6158C10.8827 15.6158 9.71523 15.2613 8.72221 14.5971C7.72918 13.9329 6.95521 12.9888 6.49817 11.8843C6.04113 10.7797 5.92154 9.5643 6.15454 8.39171C6.38754 7.21913 6.96265 6.14204 7.80715 5.29665C8.65165 4.45126 9.72761 3.87555 10.899 3.64231C12.0703 3.40907 13.2845 3.52877 14.3879 3.98629C15.4912 4.44381 16.4343 5.2186 17.0979 6.21267C17.7614 7.20674 18.1155 8.37544 18.1155 9.571C18.1155 11.1742 17.4793 12.7117 16.3469 13.8453C15.2145 14.979 13.6785 15.6158 12.077 15.6158ZM24.154 9.571C24.154 8.37544 24.5082 7.20674 25.1717 6.21267C25.8352 5.2186 26.7783 4.44381 27.8817 3.98629C28.9851 3.52877 30.1993 3.40907 31.3706 3.64231C32.542 3.87555 33.6179 4.45126 34.4624 5.29665C35.3069 6.14204 35.882 7.21913 36.115 8.39171C36.348 9.5643 36.2284 10.7797 35.7714 11.8843C35.3144 12.9888 34.5404 13.9329 33.5474 14.5971C32.5543 15.2613 31.3869 15.6158 30.1926 15.6158C28.591 15.6158 27.0551 14.979 25.9227 13.8453C24.7902 12.7117 24.154 11.1742 24.154 9.571ZM231.979 187.495C231.979 195.227 225.711 201.495 217.979 201.495H44.1925C36.4606 201.495 30.1926 195.227 30.1926 187.495V65.3812C30.1926 57.6492 36.4606 51.3812 44.1926 51.3812H217.979C225.711 51.3812 231.979 57.6492 231.979 65.3812V187.495Z" fill="#F2F2F2"/>
<path d="M366.84 5.03738H354.763V6.54859H366.84V5.03738Z" fill="white"/>
<path d="M366.84 9.57101H354.763V11.0822H366.84V9.57101Z" fill="white"/>
<path d="M366.84 14.1046H354.763V15.6159H366.84V14.1046Z" fill="white"/>
<path d="M354.763 48.8625H263.682V53.3961H354.763V48.8625Z" fill="white"/>
<path d="M354.763 64.4783H263.682V69.012H354.763V64.4783Z" fill="white"/>
<path d="M354.763 80.0942H263.682V84.6278H354.763V80.0942Z" fill="white"/>
<path d="M354.763 95.71H263.682V100.244H354.763V95.71Z" fill="white"/>
<path d="M354.763 111.326H263.682V115.859H354.763V111.326Z" fill="white"/>
<path d="M354.763 126.942H263.682V131.475H354.763V126.942Z" fill="white"/>
<path d="M354.763 142.558H263.682V147.091H354.763V142.558Z" fill="white"/>
<path d="M354.763 158.173H263.682V162.707H354.763V158.173Z" fill="white"/>
<path d="M354.763 173.789H263.682V178.323H354.763V173.789Z" fill="white"/>
<path d="M354.763 189.405H263.682V193.939H354.763V189.405Z" fill="white"/>
<path d="M42.2696 218.118C45.6046 218.118 48.3081 215.412 48.3081 212.073C48.3081 208.735 45.6046 206.028 42.2696 206.028C38.9346 206.028 36.2311 208.735 36.2311 212.073C36.2311 215.412 38.9346 218.118 42.2696 218.118Z" fill="white"/>
<path d="M62.9012 218.118C66.2361 218.118 68.9397 215.412 68.9397 212.073C68.9397 208.735 66.2361 206.028 62.9012 206.028C59.5662 206.028 56.8626 208.735 56.8626 212.073C56.8626 215.412 59.5662 218.118 62.9012 218.118Z" fill="white"/>
<path d="M83.5327 218.118C86.8677 218.118 89.5713 215.412 89.5713 212.073C89.5713 208.735 86.8677 206.028 83.5327 206.028C80.1978 206.028 77.4942 208.735 77.4942 212.073C77.4942 215.412 80.1978 218.118 83.5327 218.118Z" fill="white"/>
<path d="M354.763 241.794H263.682V267.484H354.763V241.794Z" fill="#6C63FF"/>
</svg>
