<svg width="304" height="245" viewBox="0 0 304 245" fill="none" xmlns="http://www.w3.org/2000/svg">
<g clip-path="url(#clip0)">
<g opacity="0.5">
<path opacity="0.5" d="M287.966 61.0079H246.334V45.075C246.334 40.6489 244.576 36.4042 241.447 33.2745C238.318 30.1448 234.074 28.3866 229.648 28.3866H39.028C35.0133 28.3866 31.1631 29.9817 28.3243 32.821C25.4855 35.6603 23.8906 39.5111 23.8906 43.5265V61.0173H17.6226C12.9532 61.0157 8.4741 62.8682 5.16967 66.1679C1.86524 69.4676 0.00581468 73.9445 0 78.6147V157.606C0.00338553 162.047 1.68438 166.324 4.70635 169.579C7.72833 172.834 11.8682 174.827 16.2969 175.159V193.026H34.0919V175.212H56.5001V193.176H74.2951V175.212H234.444V193.176H252.239V175.212H267.069V193.01H284.882V175.212H288.089C290.178 175.213 292.247 174.801 294.177 174.002C296.108 173.203 297.862 172.031 299.339 170.553C300.817 169.076 301.989 167.322 302.789 165.391C303.588 163.46 304 161.391 304 159.301V77.0474C304 74.9412 303.586 72.8556 302.78 70.9096C301.975 68.9636 300.794 67.1954 299.305 65.706C297.816 64.2165 296.048 63.035 294.103 62.2289C292.157 61.4228 290.072 61.0079 287.966 61.0079ZM243.2 130.717V144.064H176.859C177.578 142.778 177.954 141.328 177.953 139.855V130.717H243.2Z" fill="url(#paint0_linear)"/>
</g>
<path d="M38.4826 168.536H21.3489V189.957H38.4826V168.536Z" fill="#6C63FF"/>
<path d="M248.54 168.696H231.407V190.117H248.54V168.696Z" fill="#6C63FF"/>
<path d="M279.953 168.536H262.819V189.957H279.953V168.536Z" fill="#6C63FF"/>
<path d="M77.1941 168.696H60.0604V190.117H77.1941V168.696Z" fill="#6C63FF"/>
<path opacity="0.3" d="M38.4826 168.536H21.3489V189.957H38.4826V168.536Z" fill="black"/>
<path opacity="0.3" d="M248.54 168.696H231.407V190.117H248.54V168.696Z" fill="black"/>
<path opacity="0.3" d="M279.953 168.536H262.819V189.957H279.953V168.536Z" fill="black"/>
<path opacity="0.3" d="M77.1941 168.696H60.0604V190.117H77.1941V168.696Z" fill="black"/>
<path d="M239.815 62.8541H282.921C287.015 62.8541 290.942 64.4809 293.837 67.3766C296.732 70.2724 298.359 74.1998 298.359 78.2949V157.502C298.359 161.565 296.745 165.461 293.873 168.334C291.001 171.207 287.105 172.821 283.043 172.821H239.815V62.8541Z" fill="#6C63FF"/>
<path opacity="0.3" d="M239.815 62.8541H282.921C287.015 62.8541 290.942 64.4809 293.837 67.3766C296.732 70.2724 298.359 74.1998 298.359 78.2949V157.502C298.359 161.565 296.745 165.461 293.873 168.334C291.001 171.207 287.105 172.821 283.043 172.821H239.815V62.8541Z" fill="black"/>
<path d="M43.2213 31.4364H125.743V129.977H28.645V46.0121C28.6458 42.1461 30.1819 38.4387 32.9154 35.7053C35.6489 32.9719 39.3559 31.4364 43.2213 31.4364Z" fill="#6C63FF"/>
<path opacity="0.3" d="M43.6914 31.4364H125.743V129.977H28.645V46.4823C28.645 44.5062 29.0342 42.5494 29.7904 40.7237C30.5465 38.8981 31.6549 37.2393 33.0521 35.8421C34.4494 34.4449 36.1081 33.3367 37.9336 32.5808C39.7591 31.8249 41.7156 31.436 43.6914 31.4364Z" fill="black"/>
<path d="M65.5637 31.4364H145.575V129.977H48.477V48.5229C48.477 43.9913 50.2769 39.6452 53.4807 36.4409C56.6845 33.2366 61.0297 31.4364 65.5606 31.4364H65.5637Z" fill="#6C63FF"/>
<path d="M145.105 31.4364H226.762C231.024 31.4364 235.111 33.1296 238.124 36.1434C241.137 39.1573 242.83 43.245 242.83 47.5073V129.977H145.105V31.4364Z" fill="#6C63FF"/>
<path d="M266.947 62.8541H282.93C287.023 62.8566 290.947 64.4845 293.84 67.38C296.734 70.2754 298.359 74.2014 298.359 78.2949V157.502C298.359 161.565 296.745 165.461 293.873 168.334C291.001 171.207 287.105 172.821 283.043 172.821H266.947V62.8541Z" fill="#6C63FF"/>
<path d="M266.943 142.829H69.8949V172.821H266.943V142.829Z" fill="#6C63FF"/>
<path d="M115.172 66.7201L93.6414 72.9969C84.1613 75.7606 78.7161 85.6874 81.4793 95.1692L88.6119 119.644C91.3751 129.126 101.3 134.572 110.78 131.808L132.311 125.531C141.792 122.768 147.237 112.841 144.474 103.359L137.341 78.8842C134.578 69.4025 124.653 63.9564 115.172 66.7201Z" fill="url(#paint1_linear)"/>
<path d="M113.986 69.6438L93.9084 75.4969C85.068 78.0741 79.9904 87.3311 82.5671 96.173L89.2182 118.996C91.7949 127.838 101.05 132.916 109.891 130.339L129.968 124.486C138.809 121.909 143.887 112.652 141.31 103.81L134.659 80.9871C132.082 72.1452 122.827 67.0666 113.986 69.6438Z" fill="#F55F44"/>
<path opacity="0.1" d="M113.986 69.6438L93.9084 75.4969C85.068 78.0741 79.9904 87.3311 82.5671 96.173L89.2182 118.996C91.7949 127.838 101.05 132.916 109.891 130.339L129.968 124.486C138.809 121.909 143.887 112.652 141.31 103.81L134.659 80.9871C132.082 72.1452 122.827 67.0666 113.986 69.6438Z" fill="black"/>
<path d="M115.022 68.9156L94.9445 74.7688C86.1041 77.346 81.0264 86.6029 83.6031 95.4448L90.2542 118.268C92.831 127.109 102.086 132.188 110.927 129.611L131.005 123.758C139.845 121.18 144.923 111.924 142.346 103.082L135.695 80.2589C133.118 71.417 123.863 66.3385 115.022 68.9156Z" fill="#F55F44"/>
<path d="M110.728 88.6193C112.663 87.2579 113.129 84.5851 111.768 82.6494C110.406 80.7137 107.734 80.2482 105.799 81.6096C103.863 82.971 103.398 85.6439 104.759 87.5796C106.12 89.5152 108.793 89.9808 110.728 88.6193Z" fill="url(#paint2_linear)"/>
<path d="M131.225 100.389C133.16 99.0276 133.626 96.3547 132.265 94.419C130.903 92.4833 128.231 92.0178 126.296 93.3793C124.36 94.7407 123.895 97.4135 125.256 99.3492C126.617 101.285 129.29 101.75 131.225 100.389Z" fill="url(#paint3_linear)"/>
<path d="M99.4324 112.274C101.368 110.913 101.833 108.24 100.472 106.304C99.1108 104.368 96.4384 103.903 94.5031 105.264C92.5677 106.626 92.1023 109.299 93.4635 111.234C94.8247 113.17 97.4971 113.635 99.4324 112.274Z" fill="url(#paint4_linear)"/>
<path d="M118.759 124.868C120.695 123.506 121.16 120.833 119.799 118.898C118.438 116.962 115.765 116.497 113.83 117.858C111.895 119.219 111.429 121.892 112.79 123.828C114.152 125.764 116.824 126.229 118.759 124.868Z" fill="url(#paint5_linear)"/>
<path d="M109.906 87.4503C111.196 86.543 111.506 84.7617 110.599 83.4718C109.691 82.1818 107.911 81.8716 106.621 82.7788C105.331 83.6861 105.021 85.4674 105.928 86.7573C106.835 88.0473 108.616 88.3576 109.906 87.4503Z" fill="#F99F8F"/>
<path d="M130.403 99.2199C131.693 98.3126 132.003 96.5314 131.096 95.2414C130.189 93.9514 128.408 93.6412 127.118 94.5485C125.828 95.4558 125.518 97.237 126.425 98.527C127.332 99.817 129.113 100.127 130.403 99.2199Z" fill="#F99F8F"/>
<path d="M98.6103 111.105C99.9 110.198 100.21 108.416 99.3031 107.126C98.3959 105.836 96.615 105.526 95.3252 106.433C94.0355 107.341 93.7253 109.122 94.6324 110.412C95.5396 111.702 97.3205 112.012 98.6103 111.105Z" fill="#F99F8F"/>
<path d="M117.937 123.699C119.227 122.791 119.537 121.01 118.63 119.72C117.723 118.43 115.942 118.12 114.652 119.027C113.362 119.934 113.052 121.716 113.959 123.006C114.866 124.296 116.647 124.606 117.937 123.699Z" fill="#F99F8F"/>
<path d="M22.6057 62.8541H85.5995V172.821H22.6057C18.107 172.821 13.7925 171.033 10.6111 167.852C7.42976 164.671 5.64207 160.356 5.64124 155.856V79.8215C5.64124 75.3215 7.42856 71.0057 10.61 67.8237C13.7915 64.6418 18.1064 62.8541 22.6057 62.8541Z" fill="#6C63FF"/>
<path opacity="0.3" d="M22.7248 62.8541H69.7946C71.8716 62.8541 73.9283 63.2635 75.847 64.0588C77.7657 64.8542 79.5089 66.0199 80.977 67.4894C82.4451 68.9589 83.6092 70.7033 84.4029 72.623C85.1966 74.5427 85.6043 76.6 85.6026 78.6774V157.01C85.6026 161.203 83.9372 165.225 80.9726 168.19C78.008 171.155 73.9872 172.821 69.7946 172.821H22.7248C18.1939 172.821 13.8487 171.02 10.6449 167.816C7.44111 164.612 5.64124 160.266 5.64124 155.734V79.9312C5.64373 75.4012 7.4447 71.0576 10.6482 67.8553C13.8517 64.653 18.1956 62.8541 22.7248 62.8541Z" fill="black"/>
<path opacity="0.1" d="M54.347 62.8541H81.8606C83.2737 62.8541 84.6288 63.4155 85.628 64.4149C86.6271 65.4142 87.1885 66.7696 87.1885 68.1829V167.492C87.1885 168.905 86.6271 170.261 85.628 171.26C84.6288 172.259 83.2737 172.821 81.8606 172.821H54.347V62.8541Z" fill="black"/>
<path d="M52.7612 62.8541H80.2748C81.6878 62.8541 83.043 63.4155 84.0422 64.4149C85.0413 65.4142 85.6026 66.7696 85.6026 68.1829V167.492C85.6026 168.905 85.0413 170.261 84.0422 171.26C83.043 172.259 81.6878 172.821 80.2748 172.821H52.7612V62.8541Z" fill="#6C63FF"/>
<path d="M176.988 119.981H78.4633V147.117H176.988V119.981Z" fill="#6C63FF"/>
<path d="M275.672 120.138H177.147V147.274H275.672V120.138Z" fill="#6C63FF"/>
<path opacity="0.15" d="M168.651 119.981H86.7998C82.1957 119.981 78.4633 123.714 78.4633 128.319V138.779C78.4633 143.384 82.1957 147.117 86.7998 147.117H168.651C173.255 147.117 176.988 143.384 176.988 138.779V128.319C176.988 123.714 173.255 119.981 168.651 119.981Z" fill="white"/>
<path d="M188.489 70.073C191.643 70.073 194.2 67.516 194.2 64.3618C194.2 61.2076 191.643 58.6506 188.489 58.6506C185.336 58.6506 182.779 61.2076 182.779 64.3618C182.779 67.516 185.336 70.073 188.489 70.073Z" fill="#6C63FF"/>
<path opacity="0.3" d="M188.489 70.073C191.643 70.073 194.2 67.516 194.2 64.3618C194.2 61.2076 191.643 58.6506 188.489 58.6506C185.336 58.6506 182.779 61.2076 182.779 64.3618C182.779 67.516 185.336 70.073 188.489 70.073Z" fill="black"/>
<path d="M99.9627 70.073C103.116 70.073 105.673 67.516 105.673 64.3618C105.673 61.2076 103.116 58.6506 99.9627 58.6506C96.8091 58.6506 94.2525 61.2076 94.2525 64.3618C94.2525 67.516 96.8091 70.073 99.9627 70.073Z" fill="#6C63FF"/>
<path opacity="0.3" d="M99.9627 70.073C103.116 70.073 105.673 67.516 105.673 64.3618C105.673 61.2076 103.116 58.6506 99.9627 58.6506C96.8091 58.6506 94.2525 61.2076 94.2525 64.3618C94.2525 67.516 96.8091 70.073 99.9627 70.073Z" fill="black"/>
<path d="M97.1045 34.2105C97.8938 34.2105 98.5336 33.252 98.5336 32.0696C98.5336 30.8872 97.8938 29.9287 97.1045 29.9287C96.3152 29.9287 95.6754 30.8872 95.6754 32.0696C95.6754 33.252 96.3152 34.2105 97.1045 34.2105Z" fill="#FDA57D"/>
<path opacity="0.15" d="M267.335 120.138H185.484C180.88 120.138 177.147 123.871 177.147 128.476V138.936C177.147 143.541 180.88 147.274 185.484 147.274H267.335C271.939 147.274 275.672 143.541 275.672 138.936V128.476C275.672 123.871 271.939 120.138 267.335 120.138Z" fill="white"/>
<g opacity="0.5">
<path opacity="0.5" d="M210.744 65.2019C210.089 61.6003 209.418 57.958 207.923 54.6071C206.286 50.9261 203.721 47.7334 200.48 45.3414C199.999 44.9775 199.402 44.7994 198.8 44.8399C197.86 44.9214 197.572 45.4981 197.425 46.0937C197.406 46.1658 197.39 46.2347 197.377 46.3068C197.008 48.1343 197.255 49.9398 197.791 51.7202C198.459 53.9426 199.578 56.1086 200.508 58.2589C202.185 62.112 203.297 66.1872 203.809 70.3583C203.877 70.91 203.931 71.4773 203.943 72.0447C203.952 72.3824 203.944 72.7203 203.918 73.0571C203.876 73.7177 203.726 74.3668 203.473 74.9786C203.429 75.0789 203.382 75.1834 203.332 75.2921C203.282 75.4007 203.228 75.4969 203.169 75.5804C202.599 76.5208 201.709 77.1916 200.837 77.853C199.966 78.5144 198.979 79.2197 197.938 79.577H197.973C197.489 79.7518 196.977 79.8357 196.462 79.8246C194.855 79.7745 193.14 78.4799 191.523 78.784L191.341 78.8247C189.687 79.273 188.417 81.8746 188.405 83.5265C188.405 83.6582 188.405 83.7857 188.405 83.909C188.405 83.9528 188.405 83.9967 188.42 84.0406C188.436 84.0845 188.439 84.2067 188.452 84.2851C188.464 84.3635 188.471 84.3823 188.483 84.4293C188.496 84.4763 188.511 84.5703 188.53 84.6393C188.549 84.7083 188.558 84.7365 188.574 84.7835C188.59 84.8305 188.615 84.912 188.637 84.9747C188.659 85.0374 188.674 85.0687 188.693 85.1126C188.712 85.1565 188.743 85.2317 188.771 85.2882L188.84 85.4198C188.872 85.4731 188.9 85.5295 188.934 85.5828L189.016 85.7082L189.122 85.8586L189.213 85.9746L189.336 86.1126L189.436 86.2191L189.571 86.3476L189.68 86.4448L189.828 86.5639L189.944 86.6548L190.103 86.7645L190.223 86.846L190.398 86.9495L190.52 87.0184L190.718 87.1156L190.834 87.172C190.928 87.2159 191.025 87.2567 191.122 87.2943L191.263 87.3476L191.489 87.4291L191.652 87.4792L191.837 87.5356L192.018 87.5826L192.194 87.6265L192.388 87.6673L192.557 87.7018L192.761 87.7362L192.924 87.7613L193.134 87.7895L193.291 87.8083L193.51 87.8272H193.664H193.889H194.033H194.269H194.761H195.018H195.108L195.384 87.8052H195.438C196.22 87.7372 196.99 87.5676 197.728 87.3005C200.07 86.4135 202.057 84.7929 203.896 83.0908C207.544 79.7212 210.992 75.5397 211.283 70.5808C211.396 68.791 211.067 66.9855 210.744 65.2019Z" fill="url(#paint6_linear)"/>
</g>
<path opacity="0.1" d="M195.315 64.0107H165.771V72.5649H195.315V64.0107Z" fill="black"/>
<path d="M195.315 64.0107H165.771V71.7876H195.315V64.0107Z" fill="#6C63FF"/>
<path d="M182.876 65.0483C185.452 65.0483 187.54 62.96 187.54 60.3841C187.54 57.8081 185.452 55.7198 182.876 55.7198C180.301 55.7198 178.213 57.8081 178.213 60.3841C178.213 62.96 180.301 65.0483 182.876 65.0483Z" fill="#6C63FF"/>
<path d="M174.082 67.5622L174.026 67.5057C174.132 67.4257 174.218 67.3221 174.277 67.2033C174.336 67.0845 174.366 66.9536 174.366 66.8208C174.366 66.6881 174.336 66.5572 174.277 66.4384C174.218 66.3195 174.132 66.216 174.026 66.1359L174.076 66.0732C174.189 66.1611 174.281 66.2738 174.344 66.4025C174.407 66.5313 174.44 66.6728 174.44 66.8161C174.44 66.9595 174.407 67.101 174.344 67.2297C174.281 67.3585 174.189 67.4711 174.076 67.559L174.082 67.5622Z" fill="#4D8AF0"/>
<path opacity="0.1" d="M174.082 67.5622L174.026 67.5057C174.132 67.4257 174.218 67.3221 174.277 67.2033C174.336 67.0845 174.366 66.9536 174.366 66.8208C174.366 66.6881 174.336 66.5572 174.277 66.4384C174.218 66.3195 174.132 66.216 174.026 66.1359L174.076 66.0732C174.189 66.1611 174.281 66.2738 174.344 66.4025C174.407 66.5313 174.44 66.6728 174.44 66.8161C174.44 66.9595 174.407 67.101 174.344 67.2297C174.281 67.3585 174.189 67.4711 174.076 67.559L174.082 67.5622Z" fill="black"/>
<path d="M174.026 67.5622C173.913 67.4743 173.821 67.3617 173.758 67.2329C173.695 67.1042 173.662 66.9627 173.662 66.8193C173.662 66.6759 173.695 66.5345 173.758 66.4057C173.821 66.277 173.913 66.1643 174.026 66.0764L174.076 66.1391C173.97 66.2192 173.884 66.3227 173.825 66.4415C173.766 66.5604 173.735 66.6913 173.735 66.824C173.735 66.9567 173.766 67.0876 173.825 67.2065C173.884 67.3253 173.97 67.4288 174.076 67.5089L174.026 67.5622Z" fill="#4D8AF0"/>
<g opacity="0.1">
<path opacity="0.1" d="M202.884 81.9216C202.364 82.7742 201.549 83.3949 200.753 83.9967C199.956 84.6542 199.062 85.1831 198.101 85.564C199.455 85.4731 200.668 84.6236 201.768 83.7804C202.564 83.1786 203.379 82.5548 203.899 81.7053C204.749 80.3167 204.68 78.5708 204.482 76.9471C204.015 73.1359 203 69.4122 201.467 65.8915C199.938 62.3777 197.844 58.7259 198.609 54.9707C198.63 54.7487 198.697 54.5334 198.805 54.3382C198.913 54.143 199.059 53.9721 199.236 53.836C199.12 53.8261 199.004 53.8261 198.888 53.836C197.948 53.9207 197.71 54.5664 197.584 55.1839C196.823 58.9453 198.913 62.594 200.443 66.1047C201.975 69.6254 202.99 73.349 203.457 77.1602C203.664 78.7808 203.736 80.5299 202.884 81.9216Z" fill="black"/>
<path opacity="0.1" d="M190.398 88.9838C190.398 87.5795 191.398 85.4449 192.742 84.8054C192.513 84.7997 192.284 84.8261 192.062 84.8838C190.548 85.2944 189.389 87.6704 189.379 89.1907C189.361 93.0337 194.309 93.6606 197.302 92.855C194.328 93.2875 190.379 92.4067 190.398 88.9838Z" fill="black"/>
</g>
<g opacity="0.5">
<path opacity="0.5" d="M168.57 46.1376C168.57 46.1376 177.107 44.4293 181.375 46.1376C181.375 46.1376 183.936 40.16 186.496 40.16C189.057 40.16 189.909 49.5637 189.909 49.5637L193.322 63.224C193.322 63.224 209.541 92.2532 193.322 107.619C177.103 122.984 151.499 105.901 151.499 94.8016C151.499 83.7021 156.62 60.6537 156.62 60.6537C156.62 60.6537 161.741 41.8715 163.449 40.1631C165.157 38.4548 168.57 46.1376 168.57 46.1376Z" fill="url(#paint7_linear)"/>
</g>
<path d="M168.858 47.3256C168.858 47.3256 177.063 45.6831 181.165 47.3256C181.165 47.3256 183.625 41.5799 186.089 41.5799C188.552 41.5799 189.37 50.6074 189.37 50.6074L192.651 63.7381C192.651 63.7381 208.243 91.6356 192.651 106.415C177.06 121.195 152.442 104.773 152.442 94.1057C152.442 83.4388 157.365 61.2775 157.365 61.2775C157.365 61.2775 162.289 43.2224 163.931 41.5799C165.573 39.9374 168.858 47.3256 168.858 47.3256Z" fill="#FFD180"/>
<g opacity="0.1">
<path opacity="0.1" d="M198.384 79.0786C197.125 73.7442 195.196 68.5907 192.642 63.7412L193.159 65.8163C195.382 70.0317 197.134 74.4793 198.384 79.0786Z" fill="white"/>
<path opacity="0.1" d="M153.918 91.8958C153.918 81.2383 157.889 63.3525 157.889 63.3525C157.889 63.3525 162.812 45.2975 164.455 43.655C166.097 42.0125 169.378 49.4006 169.378 49.4006C169.378 49.4006 177.583 47.7581 181.685 49.4006C181.685 49.4006 184.149 43.655 186.609 43.655C187.549 43.655 188.273 45.0154 188.781 46.6798C188.279 44.2443 187.427 41.5799 186.092 41.5799C183.632 41.5799 181.168 47.3255 181.168 47.3255C177.066 45.683 168.861 47.3255 168.861 47.3255C168.861 47.3255 165.58 39.9405 163.937 41.5799C162.295 43.2193 157.372 61.2774 157.372 61.2774C157.372 61.2774 153.401 79.1444 153.401 89.8207C153.398 90.7861 153.918 92.203 153.918 91.8958Z" fill="white"/>
</g>
<path d="M184.86 63.3305C185.767 63.3305 186.502 62.5952 186.502 61.688C186.502 60.7809 185.767 60.0455 184.86 60.0455C183.953 60.0455 183.218 60.7809 183.218 61.688C183.218 62.5952 183.953 63.3305 184.86 63.3305Z" fill="#58555D"/>
<path d="M165.987 63.3305C166.894 63.3305 167.629 62.5952 167.629 61.688C167.629 60.7809 166.894 60.0455 165.987 60.0455C165.08 60.0455 164.345 60.7809 164.345 61.688C164.345 62.5952 165.08 63.3305 165.987 63.3305Z" fill="#58555D"/>
<path d="M175.834 64.973C177.193 64.973 178.294 64.2376 178.294 63.3305C178.294 62.4234 177.193 61.688 175.834 61.688C174.475 61.688 173.374 62.4234 173.374 63.3305C173.374 64.2376 174.475 64.973 175.834 64.973Z" fill="#58555D"/>
<path opacity="0.1" d="M173.788 73.8313C171.64 73.8332 169.495 73.6508 167.379 73.2859C163.309 72.5848 159.393 71.177 155.808 69.1263L156.093 67.8004C159.718 69.7641 163.632 71.1396 167.689 71.8753C173.597 72.8878 183.757 72.5838 194.084 66.8851L194.773 68.139C187.277 72.2828 179.385 73.8313 173.788 73.8313Z" fill="black"/>
<path d="M194.084 66.5811C183.741 72.2797 173.593 72.5837 167.689 71.5713C163.632 70.8355 159.718 69.4601 156.093 67.4963L155.335 68.7063C159.092 70.7715 163.159 72.2123 167.379 72.9724C169.496 73.3385 171.642 73.522 173.791 73.521C179.388 73.521 187.267 71.9756 194.789 67.838L194.084 66.5811ZM174.054 73.4081C174.022 73.4081 173.992 73.3987 173.965 73.3812C173.939 73.3636 173.919 73.3386 173.906 73.3094C173.894 73.2802 173.891 73.2481 173.897 73.2171C173.904 73.1861 173.919 73.1576 173.941 73.1352C173.963 73.1129 173.992 73.0976 174.023 73.0915C174.054 73.0853 174.086 73.0885 174.115 73.1006C174.144 73.1127 174.169 73.1332 174.187 73.1594C174.205 73.1857 174.214 73.2166 174.214 73.2483C174.213 73.2901 174.196 73.33 174.166 73.3593C174.136 73.3886 174.096 73.405 174.054 73.405V73.4081Z" fill="#F55F44"/>
<path opacity="0.1" d="M172.465 75.6275C172.465 76.0481 172.632 76.4516 172.93 76.749C173.227 77.0465 173.63 77.2136 174.051 77.2136C174.472 77.2136 174.875 77.0465 175.172 76.749C175.47 76.4516 175.637 76.0481 175.637 75.6275C175.637 75.2068 175.47 74.8034 175.172 74.5059C174.875 74.2085 174.472 74.0414 174.051 74.0414C173.63 74.0414 173.227 74.2085 172.93 74.5059C172.632 74.8034 172.465 75.2068 172.465 75.6275ZM174.051 74.8344C173.999 74.8344 173.948 74.819 173.905 74.79C173.861 74.7611 173.828 74.72 173.808 74.6719C173.788 74.6238 173.783 74.5708 173.793 74.5198C173.803 74.4687 173.828 74.4218 173.865 74.3849C173.902 74.3481 173.949 74.323 174 74.3129C174.051 74.3027 174.104 74.3079 174.152 74.3279C174.2 74.3478 174.241 74.3815 174.27 74.4248C174.299 74.4681 174.314 74.519 174.314 74.5711C174.314 74.6404 174.287 74.7069 174.238 74.7562C174.19 74.8055 174.123 74.8336 174.054 74.8344H174.051Z" fill="url(#paint8_linear)"/>
<path d="M172.625 75.6274C172.625 76.0065 172.776 76.37 173.044 76.6381C173.312 76.9061 173.675 77.0567 174.054 77.0567C174.433 77.0567 174.797 76.9061 175.065 76.6381C175.333 76.37 175.483 76.0065 175.483 75.6274C175.483 75.2483 175.333 74.8847 175.065 74.6167C174.797 74.3486 174.433 74.198 174.054 74.198C173.675 74.198 173.312 74.3486 173.044 74.6167C172.776 74.8847 172.625 75.2483 172.625 75.6274ZM174.054 74.9127C174.007 74.9127 173.961 74.8987 173.922 74.8725C173.883 74.8464 173.852 74.8091 173.834 74.7656C173.816 74.7221 173.811 74.6742 173.82 74.628C173.83 74.5818 173.852 74.5393 173.886 74.506C173.919 74.4727 173.961 74.45 174.008 74.4408C174.054 74.4316 174.102 74.4363 174.145 74.4544C174.189 74.4724 174.226 74.5029 174.252 74.5421C174.278 74.5813 174.292 74.6273 174.292 74.6744C174.292 74.7376 174.267 74.7982 174.223 74.8429C174.178 74.8876 174.117 74.9127 174.054 74.9127Z" fill="#4D8AF0"/>
<path d="M191.981 67.0575C170.14 79.9092 157.553 67.9979 157.553 67.9979L191.981 67.0575Z" fill="#FFD180"/>
<path d="M251.897 130.197C250.559 126.401 236.227 137.093 236.227 137.093L232.914 136.896L226.54 130.99L230.99 126.539L193.62 94.4881C192.622 93.6335 191.457 92.9969 190.199 92.619C188.941 92.2412 187.618 92.1304 186.314 92.2939L155.247 96.1682C155.112 94.3878 154.015 92.272 152.464 90.1123C149.277 84.8838 142.567 78.9815 140.091 76.8845L136.292 51.3441L139.511 46.5137C138.915 46.3508 138.329 46.1541 137.756 45.9244L138.436 44.9026L138.185 44.8336L138.499 44.4637H138.461L146.478 35.1855C147.073 34.4969 147.378 33.6042 147.329 32.6952C147.28 31.7862 146.881 30.9316 146.215 30.3112L128.272 16.6759C128.816 15.3772 129.077 13.9772 129.037 12.5696C129.178 9.86139 127.965 7.11239 123.9 5.07806C121.385 3.87865 118.751 2.94776 116.04 2.30084C111.574 1.15147 106.881 1.22075 102.451 2.50145C102.379 2.41055 102.301 2.31965 102.219 2.22561C96.6971 -4.08738 89.4543 4.98402 89.1723 5.36017L60.8658 36.8499C60.0961 38.0723 59.8146 39.5396 60.077 40.9602C60.3395 42.3807 61.1268 43.6505 62.2824 44.517L77.2661 55.7544L77.2191 55.8516L78.0653 56.4785C77.4385 57.7323 76.5641 58.5786 75.4202 58.7072L77.7143 59.8544C77.3519 60.108 76.9316 60.2665 76.492 60.3152L86.9973 65.5687C86.9973 71.0291 87.5614 96.0272 96.4369 108.299C97.3463 109.809 98.4286 111.208 99.6619 112.468C99.6619 112.468 100.417 112.057 101.796 111.393L103.382 114.568C105.125 118.054 107.92 120.903 111.372 122.712C114.824 124.521 118.758 125.197 122.615 124.646L171.929 117.599L171.406 119.166L171.688 119.126L155.704 167.084L158.343 167.965L158.293 168.059L158.666 168.219L155.341 174.488L144.876 182.538C144.876 182.538 175.461 197.831 178.68 195.418C181.899 193.004 167.397 182.538 167.397 182.538L166.592 179.319L170.112 171.887L173.061 172.871L196.76 125.464L197.566 123.853L213.605 143.914L218.128 139.394L218.617 139.889L218.658 139.848L224.926 146.193L229.467 158.59C229.467 158.59 253.229 133.993 251.897 130.197ZM127.476 38.0097L127.163 37.6461C125.251 40.0378 121.87 42.9309 118.099 44.89V42.2539L118.278 42.0972V40.9499C120.661 38.7559 122.384 35.94 123.254 32.8193C124.123 29.6986 124.104 26.3971 123.198 23.2867L133.61 31.2829L127.476 38.0097ZM92.1402 8.28471L91.8895 8.03395L92.1433 8.28471H92.1402ZM83.8194 25.0483C83.7504 25.8842 83.7222 26.7253 83.7348 27.5716C83.7164 28.8005 83.7845 30.0291 83.9385 31.2485C84.4744 35.5083 86.0007 38.9908 89.1441 40.6521C91.8832 42.094 93.6853 42.0157 94.8323 41.0314L94.9577 41.1443C95.0541 42.8103 95.4869 44.4396 96.2301 45.9339C90.3622 44.7085 84.7583 42.4511 79.6793 39.2667C79.6793 39.2667 79.6981 39.4798 79.7201 39.8622L75.4139 35.5553L83.8194 25.0483Z" fill="url(#paint9_linear)"/>
<path d="M162.396 159.007L155.36 172.3L166.304 176.99L173.34 162.135L162.396 159.007Z" fill="#FDA57D"/>
<path d="M166.304 176.99L167.084 180.124C167.084 180.124 181.156 190.29 178.028 192.634C174.9 194.979 145.193 180.124 145.193 180.124L155.357 172.303L166.304 176.99Z" fill="#333333"/>
<path opacity="0.1" d="M172.591 163.514L161.518 159.825L158.224 166.044L169.168 170.736L172.591 163.514Z" fill="black"/>
<path d="M212.389 134.106L222.957 144.807L230.714 135.77L218.654 124.602L212.389 134.106Z" fill="#FDA57D"/>
<path opacity="0.1" d="M219.09 125.122L212.825 134.629L216.83 138.682L224.957 130.554L219.09 125.122Z" fill="black"/>
<path d="M230.714 135.767L233.933 135.958C233.933 135.958 247.848 125.58 249.148 129.266C250.449 132.952 227.37 156.85 227.37 156.85L222.96 144.807L230.714 135.767Z" fill="#333333"/>
<path d="M130.516 55.7543L146.757 36.947C147.335 36.2778 147.632 35.4103 147.584 34.5269C147.536 33.6436 147.147 32.8132 146.5 32.2106L111.161 5.42273L106.87 12.1181L134.258 33.2043L122.631 45.9557L130.516 55.7543Z" fill="#FDA57D"/>
<path opacity="0.1" d="M128.652 39.3763L122.97 45.6078L130.864 55.419L139.013 45.9965C135.038 44.7379 131.464 42.4547 128.652 39.3763Z" fill="black"/>
<path d="M83.365 59.8355L64.9777 46.0434C63.8555 45.2014 63.091 43.968 62.8361 42.5882C62.5812 41.2084 62.8545 39.7832 63.6018 38.5957L91.1154 7.97424L96.7566 13.6164L77.7237 37.3294L88.9748 48.5824L83.365 59.8355Z" fill="#FDA57D"/>
<path opacity="0.1" d="M79.4756 57.0583L82.4843 59.3152L88.1255 48.0622L81.0426 41C81.1931 43.3948 81.6162 52.7013 79.4756 57.0583Z" fill="black"/>
<path d="M172.587 114.455L155.708 165.1L172.587 170.727L200.715 114.455L178.213 108.829L172.587 114.455Z" fill="#4D8AF0"/>
<path opacity="0.1" d="M171.804 116.019L170.961 118.552L188.684 116.019L195.607 124.677L199.935 116.019L177.429 110.393L171.804 116.019Z" fill="black"/>
<path d="M91.0778 8.00873C91.0778 8.00873 98.286 -1.28836 103.761 4.96821C109.236 11.2248 95.1614 12.0053 95.1614 12.0053L91.0778 8.00873Z" fill="#FDA57D"/>
<path d="M99.4487 103.202L104.886 114.082C106.579 117.468 109.294 120.236 112.647 121.993C116 123.75 119.821 124.407 123.568 123.871L189.464 114.468L211.969 142.604L228.846 125.724L192.539 94.5978C191.57 93.7672 190.438 93.1483 189.216 92.7807C187.994 92.4131 186.709 92.3049 185.443 92.4631L99.4487 103.202Z" fill="#4D8AF0"/>
<path opacity="0.1" d="M82.9137 42.5015C82.9137 42.5015 84.396 60.7759 78.7705 61.4029L90.0216 67.0451C90.0216 67.0451 89.3948 100.18 101.273 112.06C101.273 112.06 123.151 100.18 146.28 100.807C169.409 101.434 140.639 78.2981 140.639 78.2981L136.841 52.6825L139.975 47.9807C135.737 46.7116 131.944 44.2725 129.031 40.9436C125.897 44.8524 118.732 50.1529 112.518 50.1529H109.829C100.564 50.1529 90.7111 48.2722 82.9043 43.2883L82.9137 42.5015Z" fill="black"/>
<path d="M81.87 40.9374C81.87 40.9374 83.365 59.2118 77.7237 59.8356L88.9749 65.4778C88.9749 65.4778 88.348 98.6132 100.226 110.493C100.226 110.493 122.105 98.6132 145.234 99.2401C168.363 99.867 139.592 76.7308 139.592 76.7308L135.794 51.1153L138.928 46.4134C134.691 45.1444 130.897 42.7052 127.984 39.3763C124.85 43.2851 117.686 48.5857 111.471 48.5857H108.782C99.5177 48.5857 89.6643 45.9307 81.8575 40.9374H81.87Z" fill="#3AD29F"/>
<path d="M96.6908 35.7841V42.0532C96.6912 45.237 97.956 48.2904 100.207 50.5415L113.571 63.9073L118.018 55.0083C118.793 53.4589 119.196 51.7504 119.196 50.0181V35.7841H96.6908Z" fill="#FDA57D"/>
<path opacity="0.1" d="M96.8632 43.0218C96.8632 43.2537 96.8632 43.4825 96.8851 43.7145C99.9801 46.4753 103.983 47.9995 108.13 47.996C112.278 47.9926 116.278 46.4617 119.369 43.6957V36.7401H96.8632V43.0218Z" fill="black"/>
<path d="M107.942 47.0403C117.263 47.0403 124.819 39.483 124.819 30.1607C124.819 20.8384 117.263 13.2811 107.942 13.2811C98.6212 13.2811 91.0652 20.8384 91.0652 30.1607C91.0652 39.483 98.6212 47.0403 107.942 47.0403Z" fill="#FDA57D"/>
<path opacity="0.1" d="M96.6908 25.3993H124.822C124.822 25.3993 136.073 14.1463 124.822 8.51975C122.379 7.3554 119.82 6.45184 117.187 5.82403C100.079 1.48581 83.81 15.6383 86.0101 33.1542C86.5303 37.2918 88.0127 40.6772 91.0652 42.2789C102.94 48.5229 96.6908 25.3993 96.6908 25.3993Z" fill="black"/>
<path d="M96.6908 24.6188H124.822C124.822 24.6188 136.073 13.3658 124.822 7.73923C122.379 6.57488 119.82 5.67132 117.187 5.04351C100.079 0.705291 83.81 14.8578 86.0101 32.3737C86.5303 36.5113 88.0127 39.8966 91.0652 41.4984C102.94 47.7518 96.6908 24.6188 96.6908 24.6188Z" fill="#333333"/>
<path d="M97.5056 33.1166C98.3693 33.1166 99.0695 31.8915 99.0695 30.3801C99.0695 28.8688 98.3693 27.6437 97.5056 27.6437C96.6419 27.6437 95.9418 28.8688 95.9418 30.3801C95.9418 31.8915 96.6419 33.1166 97.5056 33.1166Z" fill="#FDA57D"/>
<path opacity="0.1" d="M88.9059 65.1768L89.6894 62.829L92.0336 64.3931L88.9059 65.1768Z" fill="black"/>
<path opacity="0.1" d="M139.636 76.7339C139.636 76.7339 131.124 80.8088 128.777 84.727L139.636 76.7339Z" fill="black"/>
<path opacity="0.1" d="M135.813 51.1027L135.032 53.4473L133.469 51.1027H135.813Z" fill="black"/>
<path d="M96.6908 24.6188H124.822C124.822 24.6188 136.073 13.3658 124.822 7.73923C122.379 6.57488 119.82 5.67132 117.187 5.04352C100.079 0.70529 83.81 14.8578 86.0101 32.3737C86.5303 36.5113 83.559 80.4069 96.6908 79.9818C109.823 79.5567 96.6908 24.6188 96.6908 24.6188Z" fill="#333333"/>
<path opacity="0.1" d="M172.371 87.8177C172.371 87.8177 178.078 100.227 170.585 101.296C163.091 102.365 166.511 90.9021 166.511 90.9021C166.511 90.9021 165.761 87.5011 163.938 87.3099" fill="black"/>
<path opacity="0.1" d="M179.266 87.5168C179.266 87.5168 172.481 99.3717 179.849 101.089C187.217 102.807 184.829 91.0996 184.829 91.0996C184.829 91.0996 185.876 87.7802 187.712 87.7488" fill="black"/>
<path d="M171.71 87.4697C171.71 87.4697 177.417 99.8794 169.923 100.948C162.43 102.017 165.849 90.5541 165.849 90.5541C165.849 90.5541 165.1 87.1437 163.282 86.9525" fill="#FFD180"/>
<path d="M179.796 86.9933C179.796 86.9933 172.998 98.8513 180.379 100.557C187.759 102.262 185.359 90.5667 185.359 90.5667C185.359 90.5667 186.405 87.2472 188.242 87.2158" fill="#FFD180"/>
<path opacity="0.5" d="M167.648 98.3685H167.52V100.792H167.648V98.3685Z" fill="#58555D"/>
<path opacity="0.5" d="M169.723 98.3685H169.594V100.792H169.723V98.3685Z" fill="#58555D"/>
<path opacity="0.5" d="M168.598 97.5975H168.469V100.986H168.598V97.5975Z" fill="#58555D"/>
<path opacity="0.5" d="M181.124 97.8514H180.996V100.274H181.124V97.8514Z" fill="#58555D"/>
<path opacity="0.5" d="M183.199 97.8514H183.071V100.274H183.199V97.8514Z" fill="#58555D"/>
<path opacity="0.5" d="M182.074 97.0771H181.946V100.466H182.074V97.0771Z" fill="#58555D"/>
<g opacity="0.5">
<path opacity="0.5" d="M176.917 240.146C184.727 237.526 188.935 229.071 186.316 221.26C183.696 213.448 175.242 209.24 167.432 211.86C159.623 214.479 155.415 222.935 158.034 230.746C160.653 238.557 169.108 242.766 176.917 240.146Z" fill="url(#paint10_linear)"/>
</g>
<path d="M176.614 239.243C183.925 236.79 187.864 228.875 185.412 221.563C182.96 214.251 175.046 210.311 167.735 212.763C160.425 215.215 156.486 223.131 158.937 230.443C161.389 237.755 169.304 241.695 176.614 239.243Z" fill="#F55F44"/>
<g opacity="0.5">
<path opacity="0.5" d="M135.017 244.709C133.011 245.382 130.513 244.903 129.582 242.978C129.046 241.865 129.175 240.621 129.3 239.417C129.438 238.098 129.554 236.96 128.811 236.223C128.428 235.897 127.976 235.66 127.489 235.531C126.862 235.321 126.185 235.145 125.539 234.976C124.388 234.711 123.264 234.342 122.18 233.872C120.049 232.872 118.685 231.183 118.535 229.352C118.406 227.785 119.162 226.356 119.883 224.986C120.603 223.616 121.33 222.256 120.986 220.911C120.519 219.096 118.341 218.234 116.423 217.463L116.109 217.344C113.765 216.403 111.251 214.419 111.878 211.874C112.098 210.987 112.659 210.307 113.201 209.68C113.568 209.272 113.884 208.82 114.141 208.335C114.987 206.552 113.828 204.489 113.311 203.683C112.906 203.057 112.427 202.48 111.963 201.906C111.236 201.064 110.593 200.152 110.042 199.185L109.954 199.022C108.682 196.615 108.656 196.515 108.763 193.891V193.578L109.872 193.622V193.935C109.778 196.314 109.778 196.314 110.935 198.502L111.023 198.665C111.54 199.569 112.143 200.42 112.825 201.207C113.304 201.8 113.799 202.414 114.235 203.069C115.58 205.103 115.909 207.194 115.141 208.808C114.841 209.375 114.47 209.902 114.038 210.376C113.555 210.952 113.097 211.498 112.941 212.137C112.452 214.115 114.95 215.689 116.504 216.309L116.802 216.429C118.861 217.244 121.424 218.259 122.032 220.619C122.484 222.372 121.647 223.951 120.835 225.481C120.155 226.766 119.51 227.989 119.613 229.243C119.751 230.926 121.258 232.208 122.622 232.85C123.644 233.291 124.705 233.637 125.79 233.885C126.455 234.057 127.141 234.239 127.812 234.462C128.463 234.64 129.064 234.969 129.567 235.421C130.686 236.53 130.529 238.051 130.378 239.521C130.266 240.618 130.156 241.655 130.557 242.483C131.281 243.981 133.525 244.201 135.086 243.464C136.364 242.862 137.37 241.837 138.436 240.756C138.781 240.405 139.138 240.044 139.502 239.699C141.488 237.819 143.497 236.997 145.315 237.314C145.892 237.434 146.454 237.616 146.992 237.856C147.41 238.04 147.843 238.189 148.286 238.301C149.274 238.477 150.292 238.275 151.138 237.733C151.983 237.192 152.593 236.351 152.846 235.38C152.887 235.195 152.915 235.001 152.946 234.797C153.044 234.145 153.153 233.405 153.674 232.832C154.194 232.258 155.018 232.048 155.604 231.913L161.653 230.515L161.903 231.597L155.855 232.995C155.281 233.126 154.783 233.264 154.498 233.578C154.213 233.891 154.128 234.415 154.05 234.96C154.018 235.173 153.984 235.396 153.937 235.615C153.619 236.874 152.833 237.963 151.739 238.662C150.645 239.361 149.327 239.617 148.051 239.377C147.548 239.251 147.056 239.083 146.581 238.875C146.116 238.666 145.629 238.506 145.13 238.399C143.287 238.085 141.473 239.361 140.272 240.496C139.925 240.825 139.574 241.182 139.235 241.524C138.148 242.627 137.026 243.771 135.568 244.458C135.389 244.552 135.205 244.636 135.017 244.709Z" fill="url(#paint11_linear)"/>
</g>
<path d="M135.167 244.157C133.161 244.831 130.664 244.351 129.733 242.426C129.197 241.314 129.325 240.069 129.451 238.866C129.589 237.546 129.705 236.408 128.962 235.671C128.578 235.345 128.126 235.108 127.639 234.979C127.012 234.769 126.335 234.593 125.69 234.424C124.539 234.159 123.414 233.79 122.33 233.321C120.199 232.321 118.836 230.631 118.685 228.801C118.557 227.233 119.312 225.804 120.033 224.434C120.754 223.064 121.481 221.704 121.136 220.359C120.669 218.544 118.491 217.682 116.573 216.911L116.26 216.792C113.915 215.852 111.402 213.868 112.029 211.322C112.248 210.435 112.809 209.755 113.351 209.128C113.719 208.72 114.035 208.269 114.291 207.783C115.138 206 113.978 203.937 113.461 203.132C113.057 202.505 112.577 201.928 112.113 201.354C111.386 200.512 110.743 199.601 110.192 198.634L110.104 198.471C108.832 196.063 108.807 195.963 108.913 193.339V193.026L110.023 193.07V193.383C109.929 195.762 109.929 195.762 111.085 197.95L111.173 198.113C111.69 199.017 112.294 199.868 112.975 200.655C113.455 201.248 113.95 201.862 114.385 202.517C115.73 204.552 116.059 206.642 115.291 208.257C114.991 208.824 114.621 209.35 114.188 209.824C113.705 210.401 113.248 210.946 113.091 211.586C112.602 213.563 115.1 215.137 116.655 215.758L116.952 215.877C119.011 216.692 121.575 217.707 122.183 220.068C122.634 221.82 121.797 223.4 120.986 224.929C120.306 226.215 119.66 227.437 119.763 228.691C119.901 230.374 121.409 231.656 122.772 232.299C123.795 232.739 124.855 233.086 125.941 233.333C126.605 233.506 127.291 233.687 127.962 233.91C128.614 234.089 129.215 234.417 129.717 234.869C130.836 235.979 130.679 237.499 130.529 238.969C130.416 240.066 130.306 241.104 130.707 241.931C131.431 243.43 133.675 243.649 135.236 242.912C136.515 242.31 137.521 241.285 138.586 240.204C138.931 239.853 139.288 239.493 139.652 239.148C141.639 237.267 143.648 236.446 145.466 236.762C146.042 236.882 146.604 237.064 147.142 237.305C147.561 237.488 147.994 237.637 148.437 237.75C149.425 237.926 150.443 237.723 151.288 237.181C152.133 236.64 152.743 235.8 152.997 234.828C153.037 234.643 153.066 234.449 153.097 234.245C153.194 233.593 153.304 232.854 153.824 232.28C154.344 231.706 155.168 231.496 155.755 231.361L161.803 229.963L162.054 231.045L156.005 232.443C155.432 232.575 154.933 232.712 154.648 233.026C154.363 233.339 154.278 233.863 154.2 234.408C154.169 234.621 154.134 234.844 154.087 235.063C153.769 236.322 152.983 237.411 151.889 238.11C150.796 238.809 149.477 239.065 148.202 238.825C147.698 238.699 147.207 238.531 146.732 238.323C146.266 238.114 145.78 237.954 145.281 237.847C143.438 237.533 141.623 238.809 140.423 239.944C140.075 240.273 139.724 240.63 139.386 240.972C138.298 242.075 137.176 243.219 135.719 243.906C135.54 244 135.356 244.084 135.167 244.157Z" fill="#F55F44"/>
<path opacity="0.2" d="M171.362 216.056C171.362 216.056 179.087 214.886 182.87 225.669" stroke="black" stroke-miterlimit="10"/>
<path opacity="0.2" d="M162.816 233.233C162.816 233.233 157.08 225.114 167.3 216.162" stroke="black" stroke-miterlimit="10"/>
<path opacity="0.2" d="M165.163 230.268C165.163 230.268 162.396 226.008 165.298 222.19" stroke="black" stroke-miterlimit="10"/>
<path opacity="0.2" d="M170.118 220.572C170.118 220.572 173.781 222.021 174.295 228.544" stroke="black" stroke-miterlimit="10"/>
<path opacity="0.2" d="M174.418 212.937C174.418 212.937 180.14 214.031 184.133 221.901" stroke="black" stroke-miterlimit="10"/>
<path opacity="0.2" d="M167.043 215.41C167.043 215.41 169.748 213.498 172.258 214.498" stroke="black" stroke-miterlimit="10"/>
<path opacity="0.2" d="M169.087 233.462C169.087 233.462 172.703 235.762 182.024 229.124" stroke="black" stroke-miterlimit="10"/>
<path opacity="0.2" d="M168.444 238.038C168.444 238.038 170.707 240.292 175.417 238.377" stroke="black" stroke-miterlimit="10"/>
<path opacity="0.2" d="M161.734 218.03C160.763 219.472 160.11 221.104 159.819 222.818C159.528 224.532 159.606 226.288 160.048 227.97" stroke="black" stroke-miterlimit="10"/>
<path opacity="0.2" d="M164.771 232.575C164.771 232.575 164.473 234.684 166.833 235.731" stroke="black" stroke-miterlimit="10"/>
<path opacity="0.2" d="M183.531 230.133C183.531 230.133 183.387 234.208 181.131 234.452" stroke="black" stroke-miterlimit="10"/>
<path opacity="0.2" d="M171.149 236.126C172.511 236.308 173.896 236.176 175.2 235.742C176.503 235.307 177.69 234.581 178.671 233.618" stroke="black" stroke-miterlimit="10"/>
<path opacity="0.2" d="M174.634 221.569C174.634 221.569 176.593 222.92 176.398 225.331" stroke="black" stroke-miterlimit="10"/>
<path opacity="0.2" d="M167.162 224.243C167.162 224.243 166.617 227.105 168.024 228.807" stroke="black" stroke-miterlimit="10"/>
<path opacity="0.2" d="M168.817 223.688C168.817 223.688 170.829 226.196 170.281 228.051" stroke="black" stroke-miterlimit="10"/>
<path d="M197.917 92.6575C200.057 91.8456 201.872 90.363 203.558 88.8082C206.892 85.7301 210.039 81.9122 210.308 77.3765C210.406 75.7215 210.108 74.0727 209.81 72.4396C209.212 69.1483 208.6 65.8194 207.243 62.7601C205.747 59.3978 203.404 56.4816 200.443 54.2968C200.002 53.9633 199.455 53.8008 198.904 53.8391C197.964 53.9238 197.725 54.5695 197.6 55.187C196.838 58.9485 198.929 62.5971 200.458 66.1078C201.99 69.6285 203.006 73.3522 203.473 77.1634C203.671 78.7808 203.743 80.5299 202.89 81.9216C202.37 82.7742 201.555 83.3949 200.759 83.9967C199.568 84.8963 198.252 85.8398 196.76 85.7959C195.268 85.7521 193.601 84.47 192.059 84.8838C190.517 85.2975 189.386 87.6704 189.376 89.1907C189.358 93.3095 195.052 93.742 197.917 92.6575Z" fill="#FFD180"/>
<path d="M197.08 59.6326L189.695 61.2729L189.873 62.0747L197.258 60.4343L197.08 59.6326Z" fill="#FFD180"/>
<path d="M197.912 62.9165L189.706 64.5521L189.866 65.3575L198.073 63.7219L197.912 62.9165Z" fill="#FFD180"/>
<path d="M152.186 57.2011L151.882 57.9636L160.087 61.2463L160.392 60.4838L152.186 57.2011Z" fill="#FFD180"/>
<path d="M149.648 61.2896L149.523 62.1013L160.191 63.7436L160.316 62.9318L149.648 61.2896Z" fill="#FFD180"/>
</g>
<defs>
<linearGradient id="paint0_linear" x1="152" y1="193.173" x2="152" y2="28.3772" gradientUnits="userSpaceOnUse">
<stop stop-color="#808080" stop-opacity="0.25"/>
<stop offset="0.54" stop-color="#808080" stop-opacity="0.12"/>
<stop offset="1" stop-color="#808080" stop-opacity="0.1"/>
</linearGradient>
<linearGradient id="paint1_linear" x1="23830" y1="-139262" x2="16279.8" y2="-149995" gradientUnits="userSpaceOnUse">
<stop stop-color="#808080" stop-opacity="0.25"/>
<stop offset="0.54" stop-color="#808080" stop-opacity="0.12"/>
<stop offset="1" stop-color="#808080" stop-opacity="0.1"/>
</linearGradient>
<linearGradient id="paint2_linear" x1="3487.8" y1="-20208.1" x2="3353.05" y2="-20399.7" gradientUnits="userSpaceOnUse">
<stop stop-color="#808080" stop-opacity="0.25"/>
<stop offset="0.54" stop-color="#808080" stop-opacity="0.12"/>
<stop offset="1" stop-color="#808080" stop-opacity="0.1"/>
</linearGradient>
<linearGradient id="paint3_linear" x1="4071.83" y1="-19888.5" x2="3937.03" y2="-20080.1" gradientUnits="userSpaceOnUse">
<stop stop-color="#808080" stop-opacity="0.25"/>
<stop offset="0.54" stop-color="#808080" stop-opacity="0.12"/>
<stop offset="1" stop-color="#808080" stop-opacity="0.1"/>
</linearGradient>
<linearGradient id="paint4_linear" x1="3183.46" y1="-19535.4" x2="3048.67" y2="-19727" gradientUnits="userSpaceOnUse">
<stop stop-color="#808080" stop-opacity="0.25"/>
<stop offset="0.54" stop-color="#808080" stop-opacity="0.12"/>
<stop offset="1" stop-color="#808080" stop-opacity="0.1"/>
</linearGradient>
<linearGradient id="paint5_linear" x1="3734.93" y1="-19191.9" x2="3600.13" y2="-19383.5" gradientUnits="userSpaceOnUse">
<stop stop-color="#808080" stop-opacity="0.25"/>
<stop offset="0.54" stop-color="#808080" stop-opacity="0.12"/>
<stop offset="1" stop-color="#808080" stop-opacity="0.1"/>
</linearGradient>
<linearGradient id="paint6_linear" x1="17425.8" y1="14643.5" x2="17425.8" y2="8739.29" gradientUnits="userSpaceOnUse">
<stop stop-color="#808080" stop-opacity="0.25"/>
<stop offset="0.54" stop-color="#808080" stop-opacity="0.12"/>
<stop offset="1" stop-color="#808080" stop-opacity="0.1"/>
</linearGradient>
<linearGradient id="paint7_linear" x1="33327.8" y1="31195.8" x2="33327.8" y2="13811" gradientUnits="userSpaceOnUse">
<stop stop-color="#808080" stop-opacity="0.25"/>
<stop offset="0.54" stop-color="#808080" stop-opacity="0.12"/>
<stop offset="1" stop-color="#808080" stop-opacity="0.1"/>
</linearGradient>
<linearGradient id="paint8_linear" x1="174.054" y1="77.2136" x2="174.054" y2="74.0414" gradientUnits="userSpaceOnUse">
<stop stop-color="white"/>
<stop offset="1"/>
</linearGradient>
<linearGradient id="paint9_linear" x1="117672" y1="133742" x2="117672" y2="11584.1" gradientUnits="userSpaceOnUse">
<stop stop-color="#808080" stop-opacity="0.25"/>
<stop offset="0.54" stop-color="#808080" stop-opacity="0.12"/>
<stop offset="1" stop-color="#808080" stop-opacity="0.1"/>
</linearGradient>
<linearGradient id="paint10_linear" x1="30530.6" y1="-19969.8" x2="29627.5" y2="-22662" gradientUnits="userSpaceOnUse">
<stop stop-color="#808080" stop-opacity="0.25"/>
<stop offset="0.54" stop-color="#808080" stop-opacity="0.12"/>
<stop offset="1" stop-color="#808080" stop-opacity="0.1"/>
</linearGradient>
<linearGradient id="paint11_linear" x1="48809.5" y1="-35184.3" x2="45845.2" y2="-44021.6" gradientUnits="userSpaceOnUse">
<stop stop-color="#808080" stop-opacity="0.25"/>
<stop offset="0.54" stop-color="#808080" stop-opacity="0.12"/>
<stop offset="1" stop-color="#808080" stop-opacity="0.1"/>
</linearGradient>
<clipPath id="clip0">
<rect width="304" height="245" fill="white"/>
</clipPath>
</defs>
</svg>
